<svg viewBox="990 693.8684210526314 420.0000000000004 210.26315789473662" fill="none" xmlns="http://www.w3.org/2000/svg" xmlns:xlink="http://www.w3.org/1999/xlink" overflow="visible" width="420.0000000000004px" height="210.26315789473662px"><g id="Master/Stickers/Object 8"><g id="Cloud 2"><path id="Fill 1" fill-rule="evenodd" clip-rule="evenodd" d="M1018.47 859.489C1018.47 859.489 1047.43 791.231 1068.19 791.242C1088.95 791.25 1098.16 809.997 1108.74 806.769C1119.33 803.544 1140.61 712.741 1172.85 716.066C1205.08 719.393 1200.28 795.659 1232.36 801.571C1264.43 807.483 1283.27 755.461 1319.06 764.201C1354.85 772.941 1362.42 838.305 1371.78 854.468C1381.15 870.631 1396.01 881.948 1376.54 882.021C1357.07 882.092 974.27 881.365 1018.47 859.489" fill="white"/><path id="Fill 1 Copy" fill-rule="evenodd" clip-rule="evenodd" d="M1293.73 766.1C1287.68 769.136 1282.79 772.725 1273.94 780.177L1269.27 784.135C1269 784.364 1268.74 784.581 1268.49 784.795L1267.44 785.674C1260.71 791.274 1256.08 794.585 1251.19 797.014C1244.87 800.156 1238.87 801.246 1232.63 800.095C1225.81 798.839 1220.38 794.106 1215.61 785.865L1215.44 785.568C1212.04 779.635 1209.59 773.515 1205.33 761.043L1203.01 754.224C1198.79 741.879 1196.34 735.784 1192.91 729.883L1192.56 729.283C1187.3 720.415 1181.05 715.404 1173 714.573C1164.59 713.706 1156.62 718.59 1148.83 728.332C1142.85 735.805 1137.17 745.812 1130.98 759.044L1130.17 760.788C1128.07 765.336 1123.27 776.42 1120.03 783.907C1118.73 786.911 1117.68 789.336 1117.15 790.527L1116.48 792.027C1112.6 800.495 1109.92 804.842 1108.3 805.334C1107.39 805.612 1106.48 805.699 1105.52 805.607C1103.72 805.434 1101.76 804.631 1099.25 803.104C1097.94 802.306 1093.32 799.13 1091.97 798.197L1091.05 797.575C1083.09 792.308 1076.51 789.744 1068.19 789.741C1063.36 789.739 1058.16 792.884 1052.58 798.69C1046.73 804.764 1040.57 813.647 1034.24 824.616C1029.92 832.118 1025.78 840.15 1021.97 848.181C1020.63 850.992 1019.43 853.602 1018.39 855.945L1018.04 856.735L1017.31 858.4L1017.11 858.507C1011.12 861.797 1012.58 865.699 1019.89 868.162C1025.88 870.178 1036.45 871.971 1051.32 873.575L1053.71 873.827C1080.76 876.622 1120.63 878.785 1170.48 880.386L1178.61 880.639C1218.17 881.836 1261.71 882.637 1306.14 883.106L1316.04 883.204C1338.39 883.412 1359.34 883.519 1371.02 883.527L1376.93 883.517C1385.41 883.412 1388.84 880.883 1387.2 875.718C1386.66 874.015 1385.58 872.086 1383.76 869.405L1383.25 868.655C1382.96 868.238 1382.09 867.029 1381.09 865.62C1379.62 863.566 1377.84 861.086 1377.11 860.015L1376.65 859.345C1375.29 857.354 1374.13 855.522 1373.08 853.716C1372.57 852.829 1372.04 851.749 1371.49 850.467C1370.19 847.415 1369.05 844.08 1366.99 837.392L1365.12 831.224C1362.31 821.947 1360.82 817.251 1358.91 811.883L1357.99 809.335C1348.25 782.854 1336.55 766.926 1319.42 762.743C1310.54 760.576 1302.22 761.844 1293.73 766.1ZM1133.32 761.138C1147.16 731.352 1159.43 716.189 1172.69 717.557C1179.66 718.276 1185.16 722.687 1189.98 730.814C1193.45 736.68 1195.88 742.65 1200.19 755.231L1202.93 763.283C1207.06 775.303 1209.51 781.325 1213.01 787.368L1213.29 787.852C1218.4 796.491 1224.42 801.632 1232.08 803.045C1239.01 804.322 1245.66 803.116 1252.53 799.7C1257.53 797.21 1262.21 793.899 1268.82 788.429L1270.42 787.092L1276.34 782.079C1284.39 775.316 1289.04 771.896 1294.43 769.113L1295.08 768.782C1302.96 764.828 1310.57 763.67 1318.71 765.658C1334.73 769.571 1345.98 785.068 1355.46 811.165L1355.59 811.516C1357.44 816.629 1358.8 820.784 1361.08 828.262L1363.12 834.975C1365.77 843.708 1367.07 847.686 1368.56 851.23L1368.96 852.156C1369.47 853.326 1369.98 854.343 1370.49 855.22C1371.69 857.301 1373.04 859.403 1374.63 861.716C1375.39 862.819 1377.2 865.349 1378.68 867.413C1379.47 868.521 1380.17 869.496 1380.56 870.043L1381.26 871.056C1382.94 873.527 1383.91 875.261 1384.34 876.626C1385.2 879.342 1383.58 880.494 1376.53 880.521L1373.64 880.527C1362.02 880.536 1337.38 880.416 1311.59 880.161L1297.68 880.012C1254.34 879.512 1212.04 878.69 1173.67 877.485L1169.05 877.338C1120.49 875.76 1081.53 873.645 1054.86 870.929L1052.42 870.675C1037.34 869.072 1026.67 867.28 1020.85 865.319L1020.55 865.216C1017.99 864.323 1016.6 863.438 1016.43 862.897L1016.42 862.866C1016.4 862.581 1017.09 861.845 1019.14 860.833L1018.47 859.488L1019.86 860.074L1019.88 860.011L1020.32 859.001C1020.46 858.674 1020.62 858.323 1020.78 857.948L1021.77 855.742C1022.43 854.287 1023.14 852.74 1023.9 851.117L1024.68 849.468C1028.46 841.504 1032.56 833.54 1036.84 826.114C1043.05 815.338 1049.1 806.634 1054.74 800.769C1059.81 795.497 1064.37 792.739 1068.19 792.741C1075.82 792.744 1081.88 795.107 1089.4 800.078L1089.92 800.427C1090.03 800.51 1096.09 804.691 1097.69 805.666L1098.12 805.921C1100.79 807.502 1103.01 808.38 1105.24 808.594C1106.58 808.722 1107.89 808.598 1109.18 808.204C1111.99 807.347 1114.73 803.016 1118.97 793.786L1119.63 792.339C1119.99 791.536 1121.22 788.708 1122.81 785.036C1125.84 778.049 1130.19 768.003 1132.44 763.034L1133.32 761.138Z" fill="#141414"/></g></g></svg>